<svg xmlns="http://www.w3.org/2000/svg" xmlns:xlink="http://www.w3.org/1999/xlink" width="500" zoomAndPan="magnify" viewBox="0 0 375 374.999991" height="500" preserveAspectRatio="xMidYMid meet" version="1.0"><defs><g/><clipPath id="abf0630374"><path d="M 16.75 4.003906 L 358.25 4.003906 L 358.25 370.851562 L 16.75 370.851562 Z M 16.75 4.003906 " clip-rule="nonzero"/></clipPath><clipPath id="068abe8f2a"><path d="M 201.761719 8.296875 L 343.988281 91.046875 C 352.820312 96.1875 358.25 105.632812 358.25 115.847656 L 358.25 259.152344 C 358.25 269.367188 352.820312 278.8125 343.988281 283.953125 L 201.761719 366.703125 C 192.945312 371.832031 182.054688 371.832031 173.238281 366.703125 L 31.011719 283.953125 C 22.179688 278.8125 16.75 269.367188 16.75 259.152344 L 16.75 115.847656 C 16.75 105.632812 22.179688 96.1875 31.011719 91.046875 L 173.238281 8.296875 C 182.054688 3.167969 192.945312 3.167969 201.761719 8.296875 Z M 201.761719 8.296875 " clip-rule="nonzero"/></clipPath><clipPath id="2f2e47e089"><path d="M 24.296875 12.113281 L 350.703125 12.113281 L 350.703125 362.746094 L 24.296875 362.746094 Z M 24.296875 12.113281 " clip-rule="nonzero"/></clipPath><clipPath id="b5fa1713a0"><path d="M 200.464844 15.832031 L 337.738281 95.699219 C 345.765625 100.371094 350.703125 108.957031 350.703125 118.242188 L 350.703125 256.757812 C 350.703125 266.042969 345.765625 274.628906 337.738281 279.300781 L 200.464844 359.167969 C 192.449219 363.828125 182.550781 363.828125 174.535156 359.167969 L 37.261719 279.300781 C 29.234375 274.628906 24.296875 266.042969 24.296875 256.757812 L 24.296875 118.242188 C 24.296875 108.957031 29.234375 100.371094 37.261719 95.699219 L 174.535156 15.832031 C 182.550781 11.171875 192.449219 11.171875 200.464844 15.832031 Z M 200.464844 15.832031 " clip-rule="nonzero"/></clipPath><clipPath id="7909c6a6a1"><path d="M 24.296875 12 L 350.546875 12 L 350.546875 363 L 24.296875 363 Z M 24.296875 12 " clip-rule="nonzero"/></clipPath><clipPath id="29fcce9121"><path d="M 200.464844 15.832031 L 337.734375 95.699219 C 345.761719 100.371094 350.699219 108.957031 350.699219 118.242188 L 350.699219 256.753906 C 350.699219 266.042969 345.761719 274.628906 337.734375 279.296875 L 200.464844 359.164062 C 192.449219 363.828125 182.546875 363.828125 174.535156 359.164062 L 37.261719 279.296875 C 29.234375 274.628906 24.296875 266.042969 24.296875 256.753906 L 24.296875 118.242188 C 24.296875 108.957031 29.234375 100.371094 37.261719 95.699219 L 174.535156 15.832031 C 182.546875 11.171875 192.449219 11.171875 200.464844 15.832031 Z M 200.464844 15.832031 " clip-rule="nonzero"/></clipPath><clipPath id="0aad565fec"><path d="M 61.453125 75.167969 L 313.453125 75.167969 L 313.453125 187.667969 L 61.453125 187.667969 Z M 61.453125 75.167969 " clip-rule="nonzero"/></clipPath></defs><g clip-path="url(#abf0630374)"><g clip-path="url(#068abe8f2a)"><path fill="#000000" d="M 16.75 0 L 358.25 0 L 358.25 374.851562 L 16.75 374.851562 Z M 16.75 0 " fill-opacity="1" fill-rule="nonzero"/></g></g><g clip-path="url(#2f2e47e089)"><g clip-path="url(#b5fa1713a0)"><path fill="#000000" d="M 24.296875 8.289062 L 350.703125 8.289062 L 350.703125 366.570312 L 24.296875 366.570312 Z M 24.296875 8.289062 " fill-opacity="1" fill-rule="nonzero"/></g></g><g clip-path="url(#7909c6a6a1)"><g clip-path="url(#29fcce9121)"><path stroke-linecap="butt" transform="matrix(0.75, 0, 0, 0.75, 24.297824, 8.290192)" fill="none" stroke-linejoin="miter" d="M 234.889375 10.055786 L 417.915429 116.545377 C 428.618555 122.774544 435.201888 134.222461 435.201888 146.60267 L 435.201888 331.284974 C 435.201888 343.670392 428.618555 355.118309 417.915429 361.342268 L 234.889375 467.831858 C 224.201874 474.050608 210.998749 474.050608 200.316456 467.831858 L 17.285194 361.342268 C 6.582069 355.118309 -0.00126526 343.670392 -0.00126526 331.284974 L -0.00126526 146.60267 C -0.00126526 134.222461 6.582069 122.774544 17.285194 116.545377 L 200.316456 10.055786 C 210.998749 3.842244 224.201874 3.842244 234.889375 10.055786 Z M 234.889375 10.055786 " stroke="#ff914d" stroke-width="20" stroke-opacity="1" stroke-miterlimit="4"/></g></g><g fill="#ff914d" fill-opacity="1"><g transform="translate(71.737466, 248.121068)"><g><path d="M 20.9375 0.453125 C 19.375 0.453125 18.21875 0.125 17.46875 -0.53125 C 16.726562 -1.1875 16.359375 -2.234375 16.359375 -3.671875 L 16.359375 -39.234375 C 15.753906 -39.171875 15.007812 -39.0625 14.125 -38.90625 C 13.238281 -38.75 12.3125 -38.519531 11.34375 -38.21875 C 10.375 -37.914062 9.398438 -37.554688 8.421875 -37.140625 C 7.453125 -36.722656 6.582031 -36.238281 5.8125 -35.6875 C 5.050781 -35.132812 4.425781 -34.507812 3.9375 -33.8125 C 3.457031 -33.125 3.21875 -32.363281 3.21875 -31.53125 C 3.21875 -30.925781 3.296875 -30.445312 3.453125 -30.09375 C 3.617188 -29.738281 3.800781 -29.472656 4 -29.296875 C 4.207031 -29.117188 4.414062 -29.003906 4.625 -28.953125 C 4.84375 -28.910156 5 -28.890625 5.09375 -28.890625 C 5.5625 -28.890625 5.941406 -28.96875 6.234375 -29.125 C 6.535156 -29.289062 6.804688 -29.460938 7.046875 -29.640625 C 7.296875 -29.816406 7.523438 -29.984375 7.734375 -30.140625 C 7.953125 -30.296875 8.203125 -30.375 8.484375 -30.375 C 8.703125 -30.375 8.9375 -30.320312 9.1875 -30.21875 C 9.445312 -30.125 9.679688 -29.960938 9.890625 -29.734375 C 10.109375 -29.515625 10.289062 -29.222656 10.4375 -28.859375 C 10.59375 -28.492188 10.671875 -28.050781 10.671875 -27.53125 C 10.671875 -26.78125 10.523438 -26.132812 10.234375 -25.59375 C 9.941406 -25.050781 9.566406 -24.597656 9.109375 -24.234375 C 8.648438 -23.867188 8.125 -23.597656 7.53125 -23.421875 C 6.945312 -23.242188 6.367188 -23.15625 5.796875 -23.15625 C 4.898438 -23.15625 4.09375 -23.304688 3.375 -23.609375 C 2.65625 -23.921875 2.039062 -24.347656 1.53125 -24.890625 C 1.03125 -25.429688 0.648438 -26.066406 0.390625 -26.796875 C 0.128906 -27.523438 0 -28.300781 0 -29.125 C 0 -31.300781 0.597656 -33.1875 1.796875 -34.78125 C 3.003906 -36.382812 4.65625 -37.710938 6.75 -38.765625 C 8.84375 -39.816406 11.28125 -40.59375 14.0625 -41.09375 C 16.84375 -41.601562 19.816406 -41.859375 22.984375 -41.859375 C 24.492188 -41.859375 25.96875 -41.84375 27.40625 -41.8125 C 28.84375 -41.789062 30.15625 -41.75 31.34375 -41.6875 C 32.53125 -41.632812 33.550781 -41.570312 34.40625 -41.5 C 35.269531 -41.425781 35.894531 -41.34375 36.28125 -41.25 C 36.65625 -41.15625 36.953125 -41.019531 37.171875 -40.84375 C 37.398438 -40.664062 37.570312 -40.460938 37.6875 -40.234375 C 37.800781 -40.015625 37.875 -39.773438 37.90625 -39.515625 C 37.945312 -39.265625 37.96875 -39.007812 37.96875 -38.75 C 37.96875 -38.539062 37.9375 -38.300781 37.875 -38.03125 C 37.820312 -37.757812 37.738281 -37.503906 37.625 -37.265625 C 37.519531 -37.023438 37.378906 -36.820312 37.203125 -36.65625 C 37.035156 -36.488281 36.832031 -36.40625 36.59375 -36.40625 C 36.445312 -36.40625 36.289062 -36.46875 36.125 -36.59375 C 35.96875 -36.726562 35.75 -36.890625 35.46875 -37.078125 C 35.195312 -37.265625 34.820312 -37.476562 34.34375 -37.71875 C 33.863281 -37.957031 33.234375 -38.179688 32.453125 -38.390625 C 31.679688 -38.597656 30.734375 -38.785156 29.609375 -38.953125 C 28.484375 -39.117188 27.117188 -39.226562 25.515625 -39.28125 L 25.515625 -3.671875 C 25.515625 -2.234375 25.140625 -1.1875 24.390625 -0.53125 C 23.640625 0.125 22.488281 0.453125 20.9375 0.453125 Z M 20.9375 0.453125 "/></g></g></g><g fill="#ff914d" fill-opacity="1"><g transform="translate(105.105906, 248.121068)"><g><path d="M 12.4375 -23.15625 C 13.144531 -24.238281 13.898438 -25.21875 14.703125 -26.09375 C 15.035156 -26.46875 15.394531 -26.832031 15.78125 -27.1875 C 16.175781 -27.539062 16.582031 -27.859375 17 -28.140625 C 17.425781 -28.421875 17.863281 -28.644531 18.3125 -28.8125 C 18.757812 -28.976562 19.207031 -29.0625 19.65625 -29.0625 C 20.601562 -29.0625 21.347656 -28.773438 21.890625 -28.203125 C 22.429688 -27.640625 22.703125 -26.84375 22.703125 -25.8125 C 22.703125 -25.175781 22.648438 -24.5625 22.546875 -23.96875 C 22.453125 -23.382812 22.253906 -22.675781 21.953125 -21.84375 L 21.171875 -21.84375 C 21.054688 -22.414062 20.789062 -22.894531 20.375 -23.28125 C 19.96875 -23.664062 19.375 -23.859375 18.59375 -23.859375 C 18.007812 -23.859375 17.4375 -23.75 16.875 -23.53125 C 16.320312 -23.320312 15.78125 -23.054688 15.25 -22.734375 C 14.71875 -22.421875 14.210938 -22.078125 13.734375 -21.703125 C 13.253906 -21.328125 12.820312 -20.972656 12.4375 -20.640625 L 12.4375 -2.46875 C 12.4375 -2.21875 12.394531 -1.925781 12.3125 -1.59375 C 12.238281 -1.257812 12.054688 -0.941406 11.765625 -0.640625 C 11.484375 -0.347656 11.054688 -0.09375 10.484375 0.125 C 9.910156 0.34375 9.128906 0.453125 8.140625 0.453125 C 7.148438 0.453125 6.367188 0.332031 5.796875 0.09375 C 5.234375 -0.132812 4.800781 -0.40625 4.5 -0.71875 C 4.207031 -1.039062 4.023438 -1.367188 3.953125 -1.703125 C 3.878906 -2.046875 3.84375 -2.316406 3.84375 -2.515625 L 3.84375 -24.140625 C 3.84375 -24.679688 3.710938 -25.148438 3.453125 -25.546875 C 3.203125 -25.953125 2.78125 -26.15625 2.1875 -26.15625 C 1.863281 -26.15625 1.585938 -26.097656 1.359375 -25.984375 C 1.140625 -25.867188 0.898438 -25.710938 0.640625 -25.515625 L 0.0625 -26.203125 C 0.488281 -26.554688 0.96875 -26.90625 1.5 -27.25 C 2.03125 -27.601562 2.601562 -27.910156 3.21875 -28.171875 C 3.832031 -28.429688 4.492188 -28.644531 5.203125 -28.8125 C 5.910156 -28.976562 6.660156 -29.0625 7.453125 -29.0625 C 8.253906 -29.0625 8.9375 -28.953125 9.5 -28.734375 C 10.070312 -28.523438 10.539062 -28.25 10.90625 -27.90625 C 11.269531 -27.5625 11.550781 -27.171875 11.75 -26.734375 C 11.957031 -26.304688 12.113281 -25.875 12.21875 -25.4375 C 12.320312 -25 12.382812 -24.578125 12.40625 -24.171875 C 12.425781 -23.773438 12.4375 -23.4375 12.4375 -23.15625 Z M 12.4375 -23.15625 "/></g></g></g><g fill="#ff914d" fill-opacity="1"><g transform="translate(127.864758, 248.121068)"><g><path d="M 16.09375 -14.5 C 16.09375 -14.96875 15.941406 -15.320312 15.640625 -15.5625 C 15.347656 -15.8125 14.96875 -15.9375 14.5 -15.9375 C 13.851562 -15.9375 13.234375 -15.785156 12.640625 -15.484375 C 12.054688 -15.179688 11.539062 -14.738281 11.09375 -14.15625 C 10.644531 -13.582031 10.285156 -12.867188 10.015625 -12.015625 C 9.753906 -11.171875 9.625 -10.191406 9.625 -9.078125 C 9.625 -7.992188 9.703125 -7.09375 9.859375 -6.375 C 10.023438 -5.664062 10.242188 -5.101562 10.515625 -4.6875 C 10.785156 -4.269531 11.097656 -3.976562 11.453125 -3.8125 C 11.804688 -3.644531 12.179688 -3.5625 12.578125 -3.5625 C 13.054688 -3.5625 13.507812 -3.6875 13.9375 -3.9375 C 14.375 -4.1875 14.75 -4.503906 15.0625 -4.890625 C 15.382812 -5.285156 15.632812 -5.722656 15.8125 -6.203125 C 16 -6.691406 16.09375 -7.179688 16.09375 -7.671875 Z M 11.640625 -26.765625 C 11.015625 -26.765625 10.429688 -26.6875 9.890625 -26.53125 C 9.347656 -26.382812 8.878906 -26.195312 8.484375 -25.96875 C 8.085938 -25.75 7.773438 -25.503906 7.546875 -25.234375 C 7.328125 -24.960938 7.21875 -24.707031 7.21875 -24.46875 C 7.21875 -24.1875 7.363281 -23.984375 7.65625 -23.859375 C 7.945312 -23.742188 8.269531 -23.609375 8.625 -23.453125 C 8.976562 -23.296875 9.300781 -23.070312 9.59375 -22.78125 C 9.882812 -22.488281 10.03125 -22.046875 10.03125 -21.453125 C 10.03125 -21.054688 9.945312 -20.691406 9.78125 -20.359375 C 9.625 -20.035156 9.410156 -19.75 9.140625 -19.5 C 8.867188 -19.25 8.550781 -19.050781 8.1875 -18.90625 C 7.820312 -18.769531 7.445312 -18.703125 7.0625 -18.703125 C 6.007812 -18.703125 5.160156 -19.054688 4.515625 -19.765625 C 3.878906 -20.472656 3.5625 -21.414062 3.5625 -22.59375 C 3.5625 -23.726562 3.859375 -24.703125 4.453125 -25.515625 C 5.046875 -26.328125 5.820312 -26.992188 6.78125 -27.515625 C 7.75 -28.046875 8.835938 -28.4375 10.046875 -28.6875 C 11.265625 -28.9375 12.476562 -29.0625 13.6875 -29.0625 C 15.144531 -29.0625 16.535156 -28.898438 17.859375 -28.578125 C 19.191406 -28.265625 20.363281 -27.765625 21.375 -27.078125 C 22.394531 -26.390625 23.207031 -25.507812 23.8125 -24.4375 C 24.414062 -23.375 24.71875 -22.085938 24.71875 -20.578125 L 24.71875 -4.765625 C 24.71875 -4.597656 24.726562 -4.410156 24.75 -4.203125 C 24.769531 -3.992188 24.816406 -3.804688 24.890625 -3.640625 C 24.960938 -3.472656 25.070312 -3.332031 25.21875 -3.21875 C 25.375 -3.101562 25.59375 -3.046875 25.875 -3.046875 C 26.207031 -3.046875 26.519531 -3.171875 26.8125 -3.421875 C 27.101562 -3.679688 27.359375 -3.941406 27.578125 -4.203125 L 28.28125 -3.609375 C 28 -3.222656 27.660156 -2.796875 27.265625 -2.328125 C 26.878906 -1.859375 26.40625 -1.414062 25.84375 -1 C 25.28125 -0.59375 24.625 -0.25 23.875 0.03125 C 23.132812 0.3125 22.285156 0.453125 21.328125 0.453125 C 20.160156 0.453125 19.117188 0.101562 18.203125 -0.59375 C 17.285156 -1.300781 16.6875 -2.382812 16.40625 -3.84375 C 15.8125 -3.03125 15.191406 -2.351562 14.546875 -1.8125 C 13.898438 -1.28125 13.238281 -0.84375 12.5625 -0.5 C 11.894531 -0.164062 11.21875 0.0703125 10.53125 0.21875 C 9.851562 0.375 9.171875 0.453125 8.484375 0.453125 C 7.585938 0.453125 6.71875 0.3125 5.875 0.03125 C 5.039062 -0.25 4.289062 -0.691406 3.625 -1.296875 C 2.957031 -1.910156 2.421875 -2.703125 2.015625 -3.671875 C 1.617188 -4.640625 1.421875 -5.820312 1.421875 -7.21875 C 1.421875 -8.914062 1.753906 -10.304688 2.421875 -11.390625 C 3.097656 -12.472656 3.984375 -13.382812 5.078125 -14.125 C 6.171875 -14.863281 7.410156 -15.492188 8.796875 -16.015625 C 10.191406 -16.535156 11.617188 -17.085938 13.078125 -17.671875 C 14.160156 -18.097656 14.945312 -18.734375 15.4375 -19.578125 C 15.9375 -20.429688 16.1875 -21.304688 16.1875 -22.203125 C 16.1875 -23.585938 15.78125 -24.691406 14.96875 -25.515625 C 14.15625 -26.347656 13.046875 -26.765625 11.640625 -26.765625 Z M 11.640625 -26.765625 "/></g></g></g><g fill="#ff914d" fill-opacity="1"><g transform="translate(156.41829, 248.121068)"><g><path d="M 12.4375 -2.515625 C 12.4375 -2.273438 12.394531 -1.984375 12.3125 -1.640625 C 12.226562 -1.296875 12.03125 -0.96875 11.71875 -0.65625 C 11.40625 -0.351562 10.957031 -0.09375 10.375 0.125 C 9.800781 0.34375 9.019531 0.453125 8.03125 0.453125 C 7.039062 0.453125 6.265625 0.332031 5.703125 0.09375 C 5.148438 -0.132812 4.734375 -0.40625 4.453125 -0.71875 C 4.171875 -1.039062 4 -1.367188 3.9375 -1.703125 C 3.875 -2.046875 3.84375 -2.316406 3.84375 -2.515625 L 3.84375 -24.140625 C 3.84375 -24.679688 3.710938 -25.148438 3.453125 -25.546875 C 3.203125 -25.953125 2.78125 -26.15625 2.1875 -26.15625 C 1.863281 -26.15625 1.585938 -26.097656 1.359375 -25.984375 C 1.140625 -25.867188 0.898438 -25.710938 0.640625 -25.515625 L 0.0625 -26.203125 C 0.488281 -26.554688 0.96875 -26.90625 1.5 -27.25 C 2.03125 -27.601562 2.601562 -27.910156 3.21875 -28.171875 C 3.832031 -28.429688 4.492188 -28.644531 5.203125 -28.8125 C 5.910156 -28.976562 6.660156 -29.0625 7.453125 -29.0625 C 8.660156 -29.0625 9.597656 -28.894531 10.265625 -28.5625 C 10.941406 -28.238281 11.4375 -27.835938 11.75 -27.359375 C 12.070312 -26.890625 12.265625 -26.382812 12.328125 -25.84375 C 12.398438 -25.300781 12.4375 -24.828125 12.4375 -24.421875 Z M 2.96875 -35.453125 C 2.96875 -35.972656 3.082031 -36.46875 3.3125 -36.9375 C 3.550781 -37.414062 3.878906 -37.832031 4.296875 -38.1875 C 4.710938 -38.539062 5.195312 -38.820312 5.75 -39.03125 C 6.300781 -39.238281 6.90625 -39.34375 7.5625 -39.34375 C 8.195312 -39.34375 8.785156 -39.238281 9.328125 -39.03125 C 9.878906 -38.820312 10.359375 -38.539062 10.765625 -38.1875 C 11.179688 -37.832031 11.503906 -37.414062 11.734375 -36.9375 C 11.972656 -36.46875 12.09375 -35.972656 12.09375 -35.453125 C 12.09375 -34.910156 11.972656 -34.40625 11.734375 -33.9375 C 11.503906 -33.46875 11.179688 -33.0625 10.765625 -32.71875 C 10.359375 -32.375 9.878906 -32.097656 9.328125 -31.890625 C 8.785156 -31.679688 8.195312 -31.578125 7.5625 -31.578125 C 6.90625 -31.578125 6.300781 -31.679688 5.75 -31.890625 C 5.195312 -32.097656 4.710938 -32.375 4.296875 -32.71875 C 3.878906 -33.0625 3.550781 -33.46875 3.3125 -33.9375 C 3.082031 -34.40625 2.96875 -34.910156 2.96875 -35.453125 Z M 2.96875 -35.453125 "/></g></g></g><g fill="#ff914d" fill-opacity="1"><g transform="translate(172.402677, 248.121068)"><g><path d="M 12.15625 -2.46875 C 12.15625 -2.21875 12.113281 -1.925781 12.03125 -1.59375 C 11.945312 -1.257812 11.75 -0.941406 11.4375 -0.640625 C 11.125 -0.347656 10.675781 -0.09375 10.09375 0.125 C 9.507812 0.34375 8.722656 0.453125 7.734375 0.453125 C 6.742188 0.453125 5.96875 0.332031 5.40625 0.09375 C 4.84375 -0.132812 4.425781 -0.40625 4.15625 -0.71875 C 3.882812 -1.039062 3.71875 -1.367188 3.65625 -1.703125 C 3.59375 -2.046875 3.5625 -2.316406 3.5625 -2.515625 L 3.5625 -38.640625 C 3.5625 -39.179688 3.429688 -39.648438 3.171875 -40.046875 C 2.921875 -40.453125 2.5 -40.65625 1.90625 -40.65625 C 1.582031 -40.65625 1.304688 -40.601562 1.078125 -40.5 C 0.847656 -40.394531 0.601562 -40.242188 0.34375 -40.046875 L -0.21875 -40.71875 C 0.207031 -41.070312 0.679688 -41.421875 1.203125 -41.765625 C 1.722656 -42.109375 2.296875 -42.410156 2.921875 -42.671875 C 3.546875 -42.929688 4.210938 -43.144531 4.921875 -43.3125 C 5.628906 -43.476562 6.378906 -43.5625 7.171875 -43.5625 C 8.378906 -43.5625 9.316406 -43.398438 9.984375 -43.078125 C 10.660156 -42.753906 11.15625 -42.351562 11.46875 -41.875 C 11.789062 -41.394531 11.984375 -40.890625 12.046875 -40.359375 C 12.117188 -39.828125 12.15625 -39.359375 12.15625 -38.953125 Z M 12.15625 -2.46875 "/></g></g></g><g fill="#ff914d" fill-opacity="1"><g transform="translate(188.107127, 248.121068)"><g><path d="M 12.15625 -23.75 C 12.84375 -24.738281 13.625 -25.625 14.5 -26.40625 C 14.851562 -26.738281 15.25 -27.0625 15.6875 -27.375 C 16.132812 -27.695312 16.601562 -27.984375 17.09375 -28.234375 C 17.582031 -28.484375 18.101562 -28.679688 18.65625 -28.828125 C 19.207031 -28.984375 19.773438 -29.0625 20.359375 -29.0625 C 21.609375 -29.0625 22.726562 -28.816406 23.71875 -28.328125 C 24.707031 -27.847656 25.535156 -27.035156 26.203125 -25.890625 C 26.878906 -24.753906 27.394531 -23.25 27.75 -21.375 C 28.101562 -19.5 28.28125 -17.171875 28.28125 -14.390625 C 28.28125 -11.679688 28.035156 -9.328125 27.546875 -7.328125 C 27.066406 -5.335938 26.429688 -3.640625 25.640625 -2.234375 C 24.859375 -0.835938 23.972656 0.300781 22.984375 1.1875 C 21.992188 2.070312 20.992188 2.765625 19.984375 3.265625 C 18.984375 3.773438 18.015625 4.128906 17.078125 4.328125 C 16.148438 4.523438 15.347656 4.628906 14.671875 4.640625 L 14.390625 3.5 C 15.234375 3.289062 15.976562 2.90625 16.625 2.34375 C 17.28125 1.789062 17.832031 0.875 18.28125 -0.40625 C 18.726562 -1.6875 19.066406 -3.40625 19.296875 -5.5625 C 19.535156 -7.726562 19.65625 -10.519531 19.65625 -13.9375 C 19.65625 -16.289062 19.546875 -18.171875 19.328125 -19.578125 C 19.117188 -20.992188 18.835938 -22.066406 18.484375 -22.796875 C 18.140625 -23.535156 17.75 -24.019531 17.3125 -24.25 C 16.875 -24.488281 16.429688 -24.609375 15.984375 -24.609375 C 15.441406 -24.609375 14.960938 -24.460938 14.546875 -24.171875 C 14.140625 -23.890625 13.78125 -23.5625 13.46875 -23.1875 C 13.164062 -22.8125 12.90625 -22.4375 12.6875 -22.0625 C 12.476562 -21.6875 12.300781 -21.40625 12.15625 -21.21875 L 12.15625 -2.515625 C 12.15625 -2.273438 12.113281 -1.984375 12.03125 -1.640625 C 11.957031 -1.296875 11.773438 -0.96875 11.484375 -0.65625 C 11.203125 -0.351562 10.773438 -0.09375 10.203125 0.125 C 9.640625 0.34375 8.863281 0.453125 7.875 0.453125 C 6.882812 0.453125 6.097656 0.332031 5.515625 0.09375 C 4.929688 -0.132812 4.492188 -0.40625 4.203125 -0.71875 C 3.921875 -1.039062 3.742188 -1.367188 3.671875 -1.703125 C 3.597656 -2.046875 3.5625 -2.316406 3.5625 -2.515625 L 3.5625 -38.640625 C 3.5625 -39.179688 3.429688 -39.648438 3.171875 -40.046875 C 2.921875 -40.453125 2.5 -40.65625 1.90625 -40.65625 C 1.582031 -40.65625 1.304688 -40.601562 1.078125 -40.5 C 0.847656 -40.394531 0.601562 -40.242188 0.34375 -40.046875 L -0.21875 -40.71875 C 0.207031 -41.070312 0.679688 -41.421875 1.203125 -41.765625 C 1.722656 -42.109375 2.296875 -42.410156 2.921875 -42.671875 C 3.546875 -42.929688 4.210938 -43.144531 4.921875 -43.3125 C 5.628906 -43.476562 6.378906 -43.5625 7.171875 -43.5625 C 8.378906 -43.5625 9.316406 -43.398438 9.984375 -43.078125 C 10.660156 -42.753906 11.15625 -42.351562 11.46875 -41.875 C 11.789062 -41.394531 11.984375 -40.890625 12.046875 -40.359375 C 12.117188 -39.828125 12.15625 -39.359375 12.15625 -38.953125 Z M 12.15625 -23.75 "/></g></g></g><g fill="#ff914d" fill-opacity="1"><g transform="translate(218.676202, 248.121068)"><g><path d="M 10.71875 -12.859375 C 10.71875 -12.253906 10.804688 -11.601562 10.984375 -10.90625 C 11.160156 -10.207031 11.414062 -9.503906 11.75 -8.796875 C 12.09375 -8.085938 12.507812 -7.410156 13 -6.765625 C 13.5 -6.117188 14.070312 -5.539062 14.71875 -5.03125 C 15.363281 -4.53125 16.078125 -4.128906 16.859375 -3.828125 C 17.640625 -3.535156 18.5 -3.390625 19.4375 -3.390625 C 20.082031 -3.390625 20.6875 -3.460938 21.25 -3.609375 C 21.8125 -3.765625 22.332031 -3.972656 22.8125 -4.234375 C 23.300781 -4.492188 23.769531 -4.796875 24.21875 -5.140625 C 24.664062 -5.484375 25.113281 -5.851562 25.5625 -6.25 L 26.265625 -5.578125 C 25.835938 -4.992188 25.285156 -4.351562 24.609375 -3.65625 C 23.941406 -2.96875 23.128906 -2.320312 22.171875 -1.71875 C 21.222656 -1.113281 20.113281 -0.609375 18.84375 -0.203125 C 17.570312 0.191406 16.125 0.390625 14.5 0.390625 C 12.875 0.390625 11.289062 0.0976562 9.75 -0.484375 C 8.21875 -1.078125 6.851562 -1.960938 5.65625 -3.140625 C 4.457031 -4.316406 3.5 -5.78125 2.78125 -7.53125 C 2.0625 -9.28125 1.703125 -11.332031 1.703125 -13.6875 C 1.703125 -15.382812 1.914062 -16.941406 2.34375 -18.359375 C 2.78125 -19.785156 3.363281 -21.066406 4.09375 -22.203125 C 4.832031 -23.335938 5.691406 -24.332031 6.671875 -25.1875 C 7.648438 -26.050781 8.679688 -26.769531 9.765625 -27.34375 C 10.847656 -27.914062 11.953125 -28.34375 13.078125 -28.625 C 14.210938 -28.914062 15.304688 -29.0625 16.359375 -29.0625 C 17.734375 -29.0625 18.929688 -28.910156 19.953125 -28.609375 C 20.984375 -28.316406 21.835938 -27.914062 22.515625 -27.40625 C 23.203125 -26.90625 23.710938 -26.320312 24.046875 -25.65625 C 24.390625 -25 24.5625 -24.304688 24.5625 -23.578125 C 24.5625 -22.703125 24.304688 -21.910156 23.796875 -21.203125 C 23.296875 -20.503906 22.625 -19.894531 21.78125 -19.375 Z M 16.359375 -18.53125 C 16.597656 -18.6875 16.796875 -18.832031 16.953125 -18.96875 C 17.109375 -19.113281 17.234375 -19.28125 17.328125 -19.46875 C 17.421875 -19.664062 17.488281 -19.910156 17.53125 -20.203125 C 17.582031 -20.492188 17.609375 -20.851562 17.609375 -21.28125 C 17.609375 -21.75 17.554688 -22.265625 17.453125 -22.828125 C 17.347656 -23.398438 17.175781 -23.9375 16.9375 -24.4375 C 16.695312 -24.945312 16.390625 -25.367188 16.015625 -25.703125 C 15.640625 -26.035156 15.191406 -26.203125 14.671875 -26.203125 C 13.992188 -26.203125 13.414062 -26 12.9375 -25.59375 C 12.46875 -25.195312 12.078125 -24.679688 11.765625 -24.046875 C 11.460938 -23.410156 11.222656 -22.6875 11.046875 -21.875 C 10.867188 -21.0625 10.734375 -20.242188 10.640625 -19.421875 C 10.546875 -18.609375 10.488281 -17.820312 10.46875 -17.0625 C 10.445312 -16.3125 10.4375 -15.671875 10.4375 -15.140625 Z M 16.359375 -18.53125 "/></g></g></g><g fill="#ff914d" fill-opacity="1"><g transform="translate(245.21419, 248.121068)"><g><path d="M 16.09375 -14.5 C 16.09375 -14.96875 15.941406 -15.320312 15.640625 -15.5625 C 15.347656 -15.8125 14.96875 -15.9375 14.5 -15.9375 C 13.851562 -15.9375 13.234375 -15.785156 12.640625 -15.484375 C 12.054688 -15.179688 11.539062 -14.738281 11.09375 -14.15625 C 10.644531 -13.582031 10.285156 -12.867188 10.015625 -12.015625 C 9.753906 -11.171875 9.625 -10.191406 9.625 -9.078125 C 9.625 -7.992188 9.703125 -7.09375 9.859375 -6.375 C 10.023438 -5.664062 10.242188 -5.101562 10.515625 -4.6875 C 10.785156 -4.269531 11.097656 -3.976562 11.453125 -3.8125 C 11.804688 -3.644531 12.179688 -3.5625 12.578125 -3.5625 C 13.054688 -3.5625 13.507812 -3.6875 13.9375 -3.9375 C 14.375 -4.1875 14.75 -4.503906 15.0625 -4.890625 C 15.382812 -5.285156 15.632812 -5.722656 15.8125 -6.203125 C 16 -6.691406 16.09375 -7.179688 16.09375 -7.671875 Z M 11.640625 -26.765625 C 11.015625 -26.765625 10.429688 -26.6875 9.890625 -26.53125 C 9.347656 -26.382812 8.878906 -26.195312 8.484375 -25.96875 C 8.085938 -25.75 7.773438 -25.503906 7.546875 -25.234375 C 7.328125 -24.960938 7.21875 -24.707031 7.21875 -24.46875 C 7.21875 -24.1875 7.363281 -23.984375 7.65625 -23.859375 C 7.945312 -23.742188 8.269531 -23.609375 8.625 -23.453125 C 8.976562 -23.296875 9.300781 -23.070312 9.59375 -22.78125 C 9.882812 -22.488281 10.03125 -22.046875 10.03125 -21.453125 C 10.03125 -21.054688 9.945312 -20.691406 9.78125 -20.359375 C 9.625 -20.035156 9.410156 -19.75 9.140625 -19.5 C 8.867188 -19.25 8.550781 -19.050781 8.1875 -18.90625 C 7.820312 -18.769531 7.445312 -18.703125 7.0625 -18.703125 C 6.007812 -18.703125 5.160156 -19.054688 4.515625 -19.765625 C 3.878906 -20.472656 3.5625 -21.414062 3.5625 -22.59375 C 3.5625 -23.726562 3.859375 -24.703125 4.453125 -25.515625 C 5.046875 -26.328125 5.820312 -26.992188 6.78125 -27.515625 C 7.75 -28.046875 8.835938 -28.4375 10.046875 -28.6875 C 11.265625 -28.9375 12.476562 -29.0625 13.6875 -29.0625 C 15.144531 -29.0625 16.535156 -28.898438 17.859375 -28.578125 C 19.191406 -28.265625 20.363281 -27.765625 21.375 -27.078125 C 22.394531 -26.390625 23.207031 -25.507812 23.8125 -24.4375 C 24.414062 -23.375 24.71875 -22.085938 24.71875 -20.578125 L 24.71875 -4.765625 C 24.71875 -4.597656 24.726562 -4.410156 24.75 -4.203125 C 24.769531 -3.992188 24.816406 -3.804688 24.890625 -3.640625 C 24.960938 -3.472656 25.070312 -3.332031 25.21875 -3.21875 C 25.375 -3.101562 25.59375 -3.046875 25.875 -3.046875 C 26.207031 -3.046875 26.519531 -3.171875 26.8125 -3.421875 C 27.101562 -3.679688 27.359375 -3.941406 27.578125 -4.203125 L 28.28125 -3.609375 C 28 -3.222656 27.660156 -2.796875 27.265625 -2.328125 C 26.878906 -1.859375 26.40625 -1.414062 25.84375 -1 C 25.28125 -0.59375 24.625 -0.25 23.875 0.03125 C 23.132812 0.3125 22.285156 0.453125 21.328125 0.453125 C 20.160156 0.453125 19.117188 0.101562 18.203125 -0.59375 C 17.285156 -1.300781 16.6875 -2.382812 16.40625 -3.84375 C 15.8125 -3.03125 15.191406 -2.351562 14.546875 -1.8125 C 13.898438 -1.28125 13.238281 -0.84375 12.5625 -0.5 C 11.894531 -0.164062 11.21875 0.0703125 10.53125 0.21875 C 9.851562 0.375 9.171875 0.453125 8.484375 0.453125 C 7.585938 0.453125 6.71875 0.3125 5.875 0.03125 C 5.039062 -0.25 4.289062 -0.691406 3.625 -1.296875 C 2.957031 -1.910156 2.421875 -2.703125 2.015625 -3.671875 C 1.617188 -4.640625 1.421875 -5.820312 1.421875 -7.21875 C 1.421875 -8.914062 1.753906 -10.304688 2.421875 -11.390625 C 3.097656 -12.472656 3.984375 -13.382812 5.078125 -14.125 C 6.171875 -14.863281 7.410156 -15.492188 8.796875 -16.015625 C 10.191406 -16.535156 11.617188 -17.085938 13.078125 -17.671875 C 14.160156 -18.097656 14.945312 -18.734375 15.4375 -19.578125 C 15.9375 -20.429688 16.1875 -21.304688 16.1875 -22.203125 C 16.1875 -23.585938 15.78125 -24.691406 14.96875 -25.515625 C 14.15625 -26.347656 13.046875 -26.765625 11.640625 -26.765625 Z M 11.640625 -26.765625 "/></g></g></g><g fill="#ff914d" fill-opacity="1"><g transform="translate(273.767722, 248.121068)"><g><path d="M 19.046875 -15.203125 C 19.046875 -15.410156 19.046875 -15.828125 19.046875 -16.453125 C 19.046875 -17.078125 19.023438 -17.796875 18.984375 -18.609375 C 18.941406 -19.421875 18.875 -20.28125 18.78125 -21.1875 C 18.6875 -22.101562 18.539062 -22.957031 18.34375 -23.75 C 17.894531 -24.320312 17.394531 -24.835938 16.84375 -25.296875 C 16.289062 -25.753906 15.585938 -25.984375 14.734375 -25.984375 C 13.273438 -25.984375 12.203125 -25.03125 11.515625 -23.125 C 10.835938 -21.21875 10.5 -18.269531 10.5 -14.28125 C 10.5 -12.519531 10.578125 -10.910156 10.734375 -9.453125 C 10.890625 -8.003906 11.128906 -6.753906 11.453125 -5.703125 C 11.785156 -4.660156 12.207031 -3.847656 12.71875 -3.265625 C 13.238281 -2.691406 13.851562 -2.40625 14.5625 -2.40625 C 17.550781 -2.40625 19.046875 -6.671875 19.046875 -15.203125 Z M 18.703125 -27.53125 C 18.347656 -29.394531 17.851562 -31.132812 17.21875 -32.75 C 16.582031 -34.363281 15.820312 -35.757812 14.9375 -36.9375 C 14.050781 -38.113281 13.039062 -39.035156 11.90625 -39.703125 C 10.78125 -40.378906 9.566406 -40.71875 8.265625 -40.71875 C 7.515625 -40.71875 6.832031 -40.625 6.21875 -40.4375 C 5.613281 -40.25 5.085938 -40.023438 4.640625 -39.765625 C 4.191406 -39.515625 3.820312 -39.273438 3.53125 -39.046875 C 3.25 -38.816406 3.039062 -38.644531 2.90625 -38.53125 L 2.1875 -39.515625 C 2.632812 -40.085938 3.175781 -40.625 3.8125 -41.125 C 4.457031 -41.632812 5.160156 -42.066406 5.921875 -42.421875 C 6.691406 -42.773438 7.5 -43.050781 8.34375 -43.25 C 9.195312 -43.457031 10.046875 -43.5625 10.890625 -43.5625 C 13.648438 -43.5625 16.078125 -42.957031 18.171875 -41.75 C 20.265625 -40.550781 22.007812 -38.847656 23.40625 -36.640625 C 24.8125 -34.441406 25.867188 -31.785156 26.578125 -28.671875 C 27.285156 -25.554688 27.640625 -22.09375 27.640625 -18.28125 C 27.640625 -15.195312 27.328125 -12.488281 26.703125 -10.15625 C 26.078125 -7.820312 25.179688 -5.867188 24.015625 -4.296875 C 22.859375 -2.722656 21.453125 -1.535156 19.796875 -0.734375 C 18.148438 0.0546875 16.289062 0.453125 14.21875 0.453125 C 12.78125 0.453125 11.316406 0.195312 9.828125 -0.3125 C 8.347656 -0.832031 7.003906 -1.671875 5.796875 -2.828125 C 4.597656 -3.984375 3.613281 -5.5 2.84375 -7.375 C 2.082031 -9.25 1.703125 -11.550781 1.703125 -14.28125 C 1.703125 -16.632812 2.035156 -18.722656 2.703125 -20.546875 C 3.367188 -22.378906 4.257812 -23.925781 5.375 -25.1875 C 6.5 -26.445312 7.796875 -27.40625 9.265625 -28.0625 C 10.742188 -28.726562 12.300781 -29.0625 13.9375 -29.0625 C 14.570312 -29.0625 15.140625 -29.007812 15.640625 -28.90625 C 16.148438 -28.800781 16.59375 -28.675781 16.96875 -28.53125 C 17.34375 -28.382812 17.671875 -28.222656 17.953125 -28.046875 C 18.234375 -27.867188 18.484375 -27.695312 18.703125 -27.53125 Z M 18.703125 -27.53125 "/></g></g></g><g clip-path="url(#0aad565fec)"><path fill="#ef8b46" d="M 313.527344 187.476562 L 261.144531 130.445312 L 256.484375 140.589844 L 236.195312 119.300781 L 220.890625 135.433594 L 213.78125 123.957031 L 176.292969 178.523438 L 153.183594 154 L 150.644531 162.691406 L 128.585938 146.878906 L 103.113281 161.925781 L 101.25 155.832031 L 61.445312 181.957031 C 61.4375 181.53125 61.605469 181.09375 61.984375 180.703125 L 130.015625 110.714844 C 131.148438 109.554688 133.425781 109.644531 134.394531 110.890625 L 174.335938 162.160156 C 175.425781 163.558594 178.074219 163.460938 178.984375 161.988281 L 231.871094 76.742188 C 232.8125 75.222656 235.570312 75.175781 236.59375 76.664062 L 313.527344 187.476562 " fill-opacity="1" fill-rule="nonzero"/></g><g fill="#ff914d" fill-opacity="1"><g transform="translate(131.939003, 302.701622)"><g><path d="M 11.453125 3.8125 C 12.148438 3.8125 12.84375 3.679688 13.53125 3.421875 C 14.21875 3.171875 14.828125 2.75 15.359375 2.15625 C 15.890625 1.570312 16.320312 0.8125 16.65625 -0.125 C 16.988281 -1.070312 17.15625 -2.226562 17.15625 -3.59375 C 17.15625 -5.070312 16.789062 -6.5 16.0625 -7.875 C 15.34375 -9.257812 14.429688 -10.625 13.328125 -11.96875 C 12.234375 -13.3125 11.050781 -14.644531 9.78125 -15.96875 C 8.507812 -17.289062 7.328125 -18.640625 6.234375 -20.015625 C 5.140625 -21.390625 4.226562 -22.804688 3.5 -24.265625 C 2.78125 -25.722656 2.421875 -27.25 2.421875 -28.84375 C 2.421875 -30.4375 2.710938 -31.878906 3.296875 -33.171875 C 3.878906 -34.460938 4.675781 -35.554688 5.6875 -36.453125 C 6.695312 -37.359375 7.867188 -38.054688 9.203125 -38.546875 C 10.546875 -39.035156 11.976562 -39.28125 13.5 -39.28125 C 15.132812 -39.28125 16.585938 -39.109375 17.859375 -38.765625 C 19.128906 -38.421875 20.203125 -37.957031 21.078125 -37.375 C 21.960938 -36.789062 22.632812 -36.097656 23.09375 -35.296875 C 23.550781 -34.503906 23.78125 -33.660156 23.78125 -32.765625 C 23.78125 -32.347656 23.71875 -31.914062 23.59375 -31.46875 C 23.46875 -31.019531 23.273438 -30.609375 23.015625 -30.234375 C 22.753906 -29.867188 22.421875 -29.5625 22.015625 -29.3125 C 21.617188 -29.070312 21.144531 -28.953125 20.59375 -28.953125 C 19.945312 -28.953125 19.46875 -29.148438 19.15625 -29.546875 C 18.851562 -29.941406 18.628906 -30.425781 18.484375 -31 C 18.335938 -31.582031 18.210938 -32.21875 18.109375 -32.90625 C 18.003906 -33.601562 17.835938 -34.238281 17.609375 -34.8125 C 17.378906 -35.394531 17.035156 -35.878906 16.578125 -36.265625 C 16.117188 -36.660156 15.453125 -36.859375 14.578125 -36.859375 C 14.109375 -36.859375 13.640625 -36.753906 13.171875 -36.546875 C 12.710938 -36.335938 12.289062 -36.019531 11.90625 -35.59375 C 11.53125 -35.164062 11.226562 -34.617188 11 -33.953125 C 10.78125 -33.285156 10.671875 -32.492188 10.671875 -31.578125 C 10.671875 -30.523438 10.890625 -29.5 11.328125 -28.5 C 11.765625 -27.507812 12.34375 -26.523438 13.0625 -25.546875 C 13.78125 -24.578125 14.597656 -23.601562 15.515625 -22.625 C 16.429688 -21.65625 17.367188 -20.675781 18.328125 -19.6875 C 19.285156 -18.695312 20.222656 -17.679688 21.140625 -16.640625 C 22.054688 -15.597656 22.875 -14.515625 23.59375 -13.390625 C 24.3125 -12.273438 24.890625 -11.101562 25.328125 -9.875 C 25.765625 -8.65625 25.984375 -7.367188 25.984375 -6.015625 C 25.984375 -4.035156 25.601562 -2.269531 24.84375 -0.71875 C 24.082031 0.832031 23.046875 2.132812 21.734375 3.1875 C 20.429688 4.25 18.90625 5.0625 17.15625 5.625 C 15.40625 6.1875 13.539062 6.46875 11.5625 6.46875 C 9.769531 6.46875 8.1875 6.242188 6.8125 5.796875 C 5.4375 5.347656 4.273438 4.753906 3.328125 4.015625 C 2.390625 3.285156 1.675781 2.453125 1.1875 1.515625 C 0.707031 0.578125 0.46875 -0.390625 0.46875 -1.390625 C 0.46875 -1.804688 0.53125 -2.253906 0.65625 -2.734375 C 0.789062 -3.222656 0.984375 -3.664062 1.234375 -4.0625 C 1.492188 -4.46875 1.816406 -4.804688 2.203125 -5.078125 C 2.585938 -5.347656 3.035156 -5.484375 3.546875 -5.484375 C 4.066406 -5.484375 4.488281 -5.351562 4.8125 -5.09375 C 5.144531 -4.832031 5.40625 -4.484375 5.59375 -4.046875 C 5.789062 -3.609375 5.945312 -3.109375 6.0625 -2.546875 C 6.1875 -1.984375 6.316406 -1.410156 6.453125 -0.828125 C 6.597656 -0.253906 6.773438 0.304688 6.984375 0.859375 C 7.191406 1.421875 7.476562 1.921875 7.84375 2.359375 C 8.21875 2.796875 8.691406 3.144531 9.265625 3.40625 C 9.847656 3.675781 10.578125 3.8125 11.453125 3.8125 Z M 11.453125 3.8125 "/></g></g></g><g fill="#ff914d" fill-opacity="1"><g transform="translate(159.601225, 302.701622)"><g><path d="M 11.796875 -25.015625 L 11.796875 -5.59375 C 11.796875 -4.664062 11.96875 -4.019531 12.3125 -3.65625 C 12.664062 -3.300781 13.148438 -3.125 13.765625 -3.125 C 14.242188 -3.125 14.664062 -3.253906 15.03125 -3.515625 C 15.394531 -3.785156 15.707031 -4.085938 15.96875 -4.421875 C 16.289062 -4.785156 16.566406 -5.210938 16.796875 -5.703125 L 17.609375 -5.328125 C 17.335938 -4.773438 17.023438 -4.164062 16.671875 -3.5 C 16.316406 -2.832031 15.835938 -2.210938 15.234375 -1.640625 C 14.640625 -1.066406 13.890625 -0.585938 12.984375 -0.203125 C 12.085938 0.179688 10.957031 0.375 9.59375 0.375 C 8.820312 0.375 8.082031 0.257812 7.375 0.03125 C 6.664062 -0.195312 6.035156 -0.554688 5.484375 -1.046875 C 4.929688 -1.535156 4.488281 -2.148438 4.15625 -2.890625 C 3.820312 -3.628906 3.65625 -4.515625 3.65625 -5.546875 L 3.65625 -25.015625 L 0.703125 -25.015625 L 0.703125 -26.90625 C 1.191406 -26.90625 1.875 -27.03125 2.75 -27.28125 C 3.632812 -27.539062 4.535156 -27.96875 5.453125 -28.5625 C 6.367188 -29.15625 7.222656 -29.953125 8.015625 -30.953125 C 8.804688 -31.953125 9.367188 -33.1875 9.703125 -34.65625 L 11.796875 -34.65625 L 11.796875 -26.90625 L 16.078125 -26.90625 C 17.484375 -26.90625 18.1875 -27.140625 18.1875 -27.609375 C 18.1875 -27.785156 18.097656 -27.90625 17.921875 -27.96875 C 17.742188 -28.03125 17.546875 -28.109375 17.328125 -28.203125 C 17.109375 -28.296875 16.910156 -28.429688 16.734375 -28.609375 C 16.554688 -28.785156 16.46875 -29.078125 16.46875 -29.484375 C 16.46875 -29.972656 16.617188 -30.359375 16.921875 -30.640625 C 17.234375 -30.921875 17.632812 -31.0625 18.125 -31.0625 C 18.445312 -31.0625 18.722656 -30.992188 18.953125 -30.859375 C 19.191406 -30.722656 19.390625 -30.546875 19.546875 -30.328125 C 19.703125 -30.109375 19.816406 -29.859375 19.890625 -29.578125 C 19.972656 -29.304688 20.015625 -29.03125 20.015625 -28.75 C 20.015625 -27.601562 19.6875 -26.691406 19.03125 -26.015625 C 18.375 -25.347656 17.320312 -25.015625 15.875 -25.015625 Z M 11.796875 -25.015625 "/></g></g></g><g fill="#ff914d" fill-opacity="1"><g transform="translate(177.727464, 302.701622)"><g><path d="M 15.109375 -13.609375 C 15.109375 -14.046875 14.96875 -14.378906 14.6875 -14.609375 C 14.40625 -14.835938 14.046875 -14.953125 13.609375 -14.953125 C 12.992188 -14.953125 12.410156 -14.8125 11.859375 -14.53125 C 11.304688 -14.25 10.820312 -13.835938 10.40625 -13.296875 C 9.988281 -12.753906 9.65625 -12.082031 9.40625 -11.28125 C 9.15625 -10.488281 9.03125 -9.566406 9.03125 -8.515625 C 9.03125 -7.492188 9.101562 -6.648438 9.25 -5.984375 C 9.40625 -5.328125 9.609375 -4.800781 9.859375 -4.40625 C 10.117188 -4.007812 10.414062 -3.734375 10.75 -3.578125 C 11.082031 -3.421875 11.429688 -3.34375 11.796875 -3.34375 C 12.253906 -3.34375 12.679688 -3.457031 13.078125 -3.6875 C 13.484375 -3.925781 13.832031 -4.226562 14.125 -4.59375 C 14.425781 -4.96875 14.664062 -5.378906 14.84375 -5.828125 C 15.019531 -6.285156 15.109375 -6.742188 15.109375 -7.203125 Z M 10.9375 -25.125 C 10.332031 -25.125 9.773438 -25.050781 9.265625 -24.90625 C 8.765625 -24.769531 8.328125 -24.59375 7.953125 -24.375 C 7.585938 -24.164062 7.300781 -23.9375 7.09375 -23.6875 C 6.882812 -23.4375 6.78125 -23.195312 6.78125 -22.96875 C 6.78125 -22.707031 6.914062 -22.519531 7.1875 -22.40625 C 7.457031 -22.289062 7.757812 -22.15625 8.09375 -22 C 8.425781 -21.851562 8.726562 -21.644531 9 -21.375 C 9.269531 -21.101562 9.40625 -20.6875 9.40625 -20.125 C 9.40625 -19.757812 9.328125 -19.421875 9.171875 -19.109375 C 9.023438 -18.804688 8.828125 -18.535156 8.578125 -18.296875 C 8.328125 -18.066406 8.03125 -17.882812 7.6875 -17.75 C 7.34375 -17.613281 6.988281 -17.546875 6.625 -17.546875 C 5.644531 -17.546875 4.851562 -17.878906 4.25 -18.546875 C 3.644531 -19.210938 3.34375 -20.097656 3.34375 -21.203125 C 3.34375 -22.273438 3.617188 -23.191406 4.171875 -23.953125 C 4.734375 -24.710938 5.460938 -25.335938 6.359375 -25.828125 C 7.265625 -26.316406 8.285156 -26.679688 9.421875 -26.921875 C 10.566406 -27.160156 11.707031 -27.28125 12.84375 -27.28125 C 14.207031 -27.28125 15.507812 -27.128906 16.75 -26.828125 C 18 -26.523438 19.101562 -26.050781 20.0625 -25.40625 C 21.019531 -24.757812 21.78125 -23.9375 22.34375 -22.9375 C 22.914062 -21.9375 23.203125 -20.726562 23.203125 -19.3125 L 23.203125 -4.46875 C 23.203125 -4.3125 23.207031 -4.132812 23.21875 -3.9375 C 23.238281 -3.75 23.285156 -3.570312 23.359375 -3.40625 C 23.429688 -3.25 23.535156 -3.117188 23.671875 -3.015625 C 23.816406 -2.910156 24.019531 -2.859375 24.28125 -2.859375 C 24.59375 -2.859375 24.882812 -2.976562 25.15625 -3.21875 C 25.425781 -3.457031 25.664062 -3.695312 25.875 -3.9375 L 26.53125 -3.390625 C 26.269531 -3.023438 25.957031 -2.625 25.59375 -2.1875 C 25.226562 -1.75 24.78125 -1.335938 24.25 -0.953125 C 23.726562 -0.566406 23.113281 -0.242188 22.40625 0.015625 C 21.707031 0.285156 20.910156 0.421875 20.015625 0.421875 C 18.910156 0.421875 17.929688 0.09375 17.078125 -0.5625 C 16.222656 -1.21875 15.660156 -2.226562 15.390625 -3.59375 C 14.835938 -2.84375 14.257812 -2.210938 13.65625 -1.703125 C 13.050781 -1.203125 12.429688 -0.789062 11.796875 -0.46875 C 11.171875 -0.15625 10.535156 0.0664062 9.890625 0.203125 C 9.253906 0.347656 8.613281 0.421875 7.96875 0.421875 C 7.125 0.421875 6.304688 0.285156 5.515625 0.015625 C 4.722656 -0.242188 4.015625 -0.65625 3.390625 -1.21875 C 2.773438 -1.789062 2.28125 -2.53125 1.90625 -3.4375 C 1.53125 -4.351562 1.34375 -5.46875 1.34375 -6.78125 C 1.34375 -8.375 1.65625 -9.675781 2.28125 -10.6875 C 2.914062 -11.707031 3.742188 -12.5625 4.765625 -13.25 C 5.796875 -13.945312 6.960938 -14.539062 8.265625 -15.03125 C 9.566406 -15.519531 10.898438 -16.035156 12.265625 -16.578125 C 13.285156 -16.984375 14.023438 -17.582031 14.484375 -18.375 C 14.953125 -19.175781 15.1875 -20 15.1875 -20.84375 C 15.1875 -22.132812 14.804688 -23.171875 14.046875 -23.953125 C 13.285156 -24.734375 12.25 -25.125 10.9375 -25.125 Z M 10.9375 -25.125 "/></g></g></g><g fill="#ff914d" fill-opacity="1"><g transform="translate(204.522773, 302.701622)"><g><path d="M 11.796875 -25.015625 L 11.796875 -5.59375 C 11.796875 -4.664062 11.96875 -4.019531 12.3125 -3.65625 C 12.664062 -3.300781 13.148438 -3.125 13.765625 -3.125 C 14.242188 -3.125 14.664062 -3.253906 15.03125 -3.515625 C 15.394531 -3.785156 15.707031 -4.085938 15.96875 -4.421875 C 16.289062 -4.785156 16.566406 -5.210938 16.796875 -5.703125 L 17.609375 -5.328125 C 17.335938 -4.773438 17.023438 -4.164062 16.671875 -3.5 C 16.316406 -2.832031 15.835938 -2.210938 15.234375 -1.640625 C 14.640625 -1.066406 13.890625 -0.585938 12.984375 -0.203125 C 12.085938 0.179688 10.957031 0.375 9.59375 0.375 C 8.820312 0.375 8.082031 0.257812 7.375 0.03125 C 6.664062 -0.195312 6.035156 -0.554688 5.484375 -1.046875 C 4.929688 -1.535156 4.488281 -2.148438 4.15625 -2.890625 C 3.820312 -3.628906 3.65625 -4.515625 3.65625 -5.546875 L 3.65625 -25.015625 L 0.703125 -25.015625 L 0.703125 -26.90625 C 1.191406 -26.90625 1.875 -27.03125 2.75 -27.28125 C 3.632812 -27.539062 4.535156 -27.96875 5.453125 -28.5625 C 6.367188 -29.15625 7.222656 -29.953125 8.015625 -30.953125 C 8.804688 -31.953125 9.367188 -33.1875 9.703125 -34.65625 L 11.796875 -34.65625 L 11.796875 -26.90625 L 16.078125 -26.90625 C 17.484375 -26.90625 18.1875 -27.140625 18.1875 -27.609375 C 18.1875 -27.785156 18.097656 -27.90625 17.921875 -27.96875 C 17.742188 -28.03125 17.546875 -28.109375 17.328125 -28.203125 C 17.109375 -28.296875 16.910156 -28.429688 16.734375 -28.609375 C 16.554688 -28.785156 16.46875 -29.078125 16.46875 -29.484375 C 16.46875 -29.972656 16.617188 -30.359375 16.921875 -30.640625 C 17.234375 -30.921875 17.632812 -31.0625 18.125 -31.0625 C 18.445312 -31.0625 18.722656 -30.992188 18.953125 -30.859375 C 19.191406 -30.722656 19.390625 -30.546875 19.546875 -30.328125 C 19.703125 -30.109375 19.816406 -29.859375 19.890625 -29.578125 C 19.972656 -29.304688 20.015625 -29.03125 20.015625 -28.75 C 20.015625 -27.601562 19.6875 -26.691406 19.03125 -26.015625 C 18.375 -25.347656 17.320312 -25.015625 15.875 -25.015625 Z M 11.796875 -25.015625 "/></g></g></g><g fill="#ff914d" fill-opacity="1"><g transform="translate(222.649012, 302.701622)"><g><path d="M 11.71875 -25.171875 C 11.3125 -25.171875 10.925781 -25.117188 10.5625 -25.015625 C 10.207031 -24.910156 9.890625 -24.738281 9.609375 -24.5 C 9.335938 -24.257812 9.117188 -23.957031 8.953125 -23.59375 C 8.796875 -23.238281 8.71875 -22.816406 8.71875 -22.328125 C 8.71875 -21.648438 8.96875 -20.972656 9.46875 -20.296875 C 9.96875 -19.617188 10.585938 -18.914062 11.328125 -18.1875 C 12.078125 -17.46875 12.882812 -16.71875 13.75 -15.9375 C 14.625 -15.15625 15.429688 -14.332031 16.171875 -13.46875 C 16.921875 -12.601562 17.539062 -11.675781 18.03125 -10.6875 C 18.53125 -9.707031 18.78125 -8.660156 18.78125 -7.546875 C 18.78125 -6.285156 18.566406 -5.160156 18.140625 -4.171875 C 17.710938 -3.191406 17.097656 -2.359375 16.296875 -1.671875 C 15.503906 -0.992188 14.539062 -0.472656 13.40625 -0.109375 C 12.28125 0.242188 11.023438 0.421875 9.640625 0.421875 C 8.429688 0.421875 7.335938 0.25 6.359375 -0.09375 C 5.378906 -0.4375 4.503906 -0.859375 3.734375 -1.359375 C 2.972656 -1.859375 2.320312 -2.382812 1.78125 -2.9375 C 1.238281 -3.5 0.820312 -4.007812 0.53125 -4.46875 L 1.4375 -5.125 C 1.664062 -4.863281 1.957031 -4.578125 2.3125 -4.265625 C 2.664062 -3.960938 3.054688 -3.675781 3.484375 -3.40625 C 3.910156 -3.144531 4.367188 -2.929688 4.859375 -2.765625 C 5.347656 -2.597656 5.847656 -2.515625 6.359375 -2.515625 C 7.617188 -2.515625 8.648438 -2.816406 9.453125 -3.421875 C 10.265625 -4.023438 10.671875 -4.925781 10.671875 -6.125 C 10.671875 -6.789062 10.453125 -7.476562 10.015625 -8.1875 C 9.578125 -8.894531 9.023438 -9.625 8.359375 -10.375 C 7.691406 -11.132812 6.972656 -11.914062 6.203125 -12.71875 C 5.429688 -13.519531 4.710938 -14.347656 4.046875 -15.203125 C 3.378906 -16.066406 2.828125 -16.953125 2.390625 -17.859375 C 1.953125 -18.773438 1.734375 -19.722656 1.734375 -20.703125 C 1.734375 -21.804688 1.957031 -22.769531 2.40625 -23.59375 C 2.851562 -24.414062 3.445312 -25.097656 4.1875 -25.640625 C 4.9375 -26.179688 5.785156 -26.585938 6.734375 -26.859375 C 7.691406 -27.140625 8.679688 -27.28125 9.703125 -27.28125 C 10.867188 -27.28125 11.929688 -27.171875 12.890625 -26.953125 C 13.859375 -26.742188 14.6875 -26.425781 15.375 -26 C 16.070312 -25.570312 16.609375 -25.03125 16.984375 -24.375 C 17.359375 -23.726562 17.546875 -22.976562 17.546875 -22.125 C 17.546875 -21.457031 17.328125 -20.878906 16.890625 -20.390625 C 16.453125 -19.898438 15.84375 -19.65625 15.0625 -19.65625 C 14.300781 -19.65625 13.722656 -19.816406 13.328125 -20.140625 C 12.941406 -20.460938 12.75 -20.90625 12.75 -21.46875 C 12.75 -21.832031 12.835938 -22.117188 13.015625 -22.328125 C 13.203125 -22.546875 13.410156 -22.71875 13.640625 -22.84375 C 13.867188 -22.976562 14.070312 -23.09375 14.25 -23.1875 C 14.4375 -23.28125 14.53125 -23.40625 14.53125 -23.5625 C 14.53125 -24.0625 14.265625 -24.453125 13.734375 -24.734375 C 13.210938 -25.023438 12.539062 -25.171875 11.71875 -25.171875 Z M 11.71875 -25.171875 "/></g></g></g></svg>